<?xml version="1.0" encoding="UTF-8"?>
<svg xmlns="http://www.w3.org/2000/svg" xmlns:xlink="http://www.w3.org/1999/xlink" width="160.3pt" height="163.65pt" viewBox="0 0 160.3 163.65" version="1.1">
<defs>
<clipPath id="clip1">
  <path d="M 0 0 L 160.300781 0 L 160.300781 163.648438 L 0 163.648438 Z M 0 0 "/>
</clipPath>
<clipPath id="clip2">
  <path d="M 119 142 L 149 142 L 149 163.648438 L 119 163.648438 Z M 119 142 "/>
</clipPath>
<clipPath id="clip3">
  <path d="M 119 143 L 129 143 L 129 163.648438 L 119 163.648438 Z M 119 143 "/>
</clipPath>
<clipPath id="clip4">
  <path d="M 137 142 L 146 142 L 146 163.648438 L 137 163.648438 Z M 137 142 "/>
</clipPath>
</defs>
<g id="surface1">
<g clip-path="url(#clip1)" clip-rule="nonzero">
<path style=" stroke:none;fill-rule:nonzero;fill:rgb(10.998535%,11.399841%,10.598755%);fill-opacity:1;" d="M 20.109375 26.9375 L 57.183594 45.730469 L 62.976563 57.445313 C 62.976563 57.445313 67.871094 57.960938 68.253906 58.089844 C 68.640625 58.21875 71.601563 51.523438 71.601563 51.523438 C 71.601563 51.523438 69.414063 49.722656 69.671875 48.304688 C 69.671875 48.304688 70.058594 47.148438 70.699219 46.246094 C 71.34375 45.347656 73.40625 39.9375 73.40625 39.035156 C 73.40625 39.035156 71.988281 38.136719 72.503906 37.234375 L 43.152344 26.808594 L 72.375 29.253906 L 73.148438 28.222656 L 70.445313 25.519531 L 69.285156 13.417969 C 69.285156 13.417969 75.976563 3.507813 80.226563 0.03125 C 80.226563 0.03125 82.929688 -0.226563 84.089844 0.675781 L 83.1875 15.863281 L 86.023438 17.925781 C 86.023438 17.925781 89.882813 14.960938 94.132813 14.835938 C 94.132813 14.835938 96.835938 5.4375 100.824219 4.40625 L 98.636719 14.835938 C 98.636719 14.835938 104.816406 17.40625 106.746094 21.011719 L 108.421875 20.757813 L 114.597656 6.46875 L 118.976563 6.078125 C 118.976563 6.078125 124.511719 14.449219 124.382813 17.796875 L 116.402344 30.667969 L 110.222656 34.015625 C 110.222656 34.015625 110.351563 35.691406 110.351563 36.203125 L 137.128906 44.957031 L 107.777344 42.253906 C 107.777344 42.253906 105.203125 44.058594 105.203125 45.214844 L 105.972656 53.585938 C 105.972656 53.585938 106.617188 57.1875 102.628906 58.863281 L 103.785156 69.289063 L 107.90625 71.992188 C 107.90625 71.992188 112.539063 71.347656 115.371094 72.894531 L 133.007813 62.722656 L 160.300781 73.535156 L 154.25 76.113281 L 139.1875 76.886719 L 133.910156 81.777344 C 133.910156 81.777344 148.199219 90.917969 145.882813 110.742188 C 145.882813 110.742188 145.109375 115.246094 137.640625 116.148438 L 141.378906 142.410156 C 141.378906 142.410156 143.378906 142.996094 144.679688 145.640625 C 144.738281 145.761719 144.796875 145.886719 144.851563 146.015625 C 146.140625 148.976563 151.414063 163.648438 151.414063 163.648438 L 3.375 161.71875 C 3.375 161.71875 6.335938 155.667969 18.179688 157.597656 C 18.179688 157.597656 18.5625 154.125 24.871094 154.765625 L 32.339844 156.183594 L 32.726563 155.410156 C 32.726563 155.410156 20.367188 150.132813 20.625 140.605469 C 20.625 140.605469 12 129.535156 9.683594 104.945313 L 10.582031 103.402344 L 10.195313 92.847656 C 10.195313 92.847656 -0.617188 90.785156 0.0273438 77.398438 C 0.671875 64.011719 10.839844 53.96875 28.21875 52.296875 C 28.21875 52.296875 34.269531 51.652344 39.417969 53.710938 L 38.390625 50.492188 L 18.050781 29.769531 L 20.109375 26.9375 "/>
</g>
<path style=" stroke:none;fill-rule:nonzero;fill:rgb(88.198853%,12.199402%,14.898682%);fill-opacity:1;" d="M 19.59375 29.894531 L 20.753906 28.351563 L 56.667969 46.503906 L 63.621094 61.691406 L 80.871094 71.21875 L 78.425781 94.003906 L 76.238281 95.933594 L 49.332031 82.289063 L 39.421875 49.851563 L 19.59375 29.894531 "/>
<path style=" stroke:none;fill-rule:nonzero;fill:rgb(88.198853%,12.199402%,14.898682%);fill-opacity:1;" d="M 92.84375 76.238281 L 95.035156 72.894531 L 112.929688 75.339844 L 133.652344 64.011719 L 156.566406 73.023438 L 153.992188 74.824219 L 138.675781 75.726563 L 115.761719 98.125 L 91.558594 97.996094 L 92.84375 76.238281 "/>
<path style=" stroke:none;fill-rule:nonzero;fill:rgb(82.699585%,92.498779%,98.399353%);fill-opacity:1;" d="M 76.238281 44.445313 L 69.289063 58.476563 L 79.199219 61.308594 L 81.132813 56.546875 L 76.238281 44.445313 "/>
<path style=" stroke:none;fill-rule:nonzero;fill:rgb(82.699585%,92.498779%,98.399353%);fill-opacity:1;" d="M 81.519531 56.804688 L 94.519531 60.019531 L 94.390625 67.488281 C 94.390625 67.488281 89.886719 67.746094 89.371094 67.875 C 89.371094 67.875 83.707031 62.980469 79.714844 61.566406 L 81.519531 56.804688 "/>
<path style=" stroke:none;fill-rule:nonzero;fill:rgb(82.699585%,92.498779%,98.399353%);fill-opacity:1;" d="M 101.34375 50.753906 L 95.035156 59.765625 L 94.90625 67.230469 C 94.90625 67.230469 101.214844 68.261719 101.855469 68.773438 L 101.34375 50.753906 "/>
<path style=" stroke:none;fill-rule:nonzero;fill:rgb(100%,100%,100%);fill-opacity:1;" d="M 74.4375 38.394531 C 74.4375 38.394531 76.496094 37.234375 76.625 36.335938 L 83.835938 44.703125 L 81.648438 52.425781 L 75.59375 40.839844 C 75.59375 40.839844 74.308594 40.324219 74.824219 41.097656 L 72.121094 47.789063 C 72.121094 47.789063 71.476563 49.078125 72.507813 49.59375 L 72.25 50.238281 C 72.25 50.238281 69.804688 49.207031 70.960938 47.921875 C 70.960938 47.921875 74.4375 39.9375 74.4375 38.394531 "/>
<path style=" stroke:none;fill-rule:nonzero;fill:rgb(10.998535%,11.399841%,10.598755%);fill-opacity:1;" d="M 81.941406 44.023438 L 81.84375 44.578125 L 82.179688 45.292969 L 81.574219 49.777344 L 81.820313 50.601563 L 82.535156 45.292969 Z M 80.285156 42.492188 L 80.625 43.144531 L 80.019531 47.222656 L 80.265625 47.96875 L 80.984375 43.144531 L 80.382813 41.992188 Z M 77.445313 39.082031 L 77.785156 39.453125 L 77.179688 41.773438 L 77.425781 42.203125 L 78.144531 39.453125 L 77.546875 38.792969 Z M 78.910156 40.636719 L 79.25 41.125 L 78.644531 44.179688 L 78.890625 44.742188 L 79.609375 41.125 L 79.011719 40.257813 L 78.910156 40.636719 "/>
<path style=" stroke:none;fill-rule:nonzero;fill:rgb(100%,100%,100%);fill-opacity:1;" d="M 95.042969 55.609375 L 82.273438 52.746094 L 84.03125 44.902344 L 96.800781 47.769531 L 95.042969 55.609375 "/>
<path style=" stroke:none;fill-rule:nonzero;fill:rgb(10.998535%,11.399841%,10.598755%);fill-opacity:1;" d="M 86.335938 52.765625 L 83.917969 52.222656 L 85.292969 46.078125 L 87.710938 46.621094 L 86.335938 52.765625 "/>
<path style=" stroke:none;fill-rule:nonzero;fill:rgb(10.998535%,11.399841%,10.598755%);fill-opacity:1;" d="M 90.28125 53.648438 L 87.867188 53.109375 L 89.242188 46.964844 L 91.65625 47.503906 L 90.28125 53.648438 "/>
<path style=" stroke:none;fill-rule:nonzero;fill:rgb(10.998535%,11.399841%,10.598755%);fill-opacity:1;" d="M 94.066406 54.496094 L 91.652344 53.957031 L 93.03125 47.8125 L 95.441406 48.355469 L 94.066406 54.496094 "/>
<path style=" stroke:none;fill-rule:nonzero;fill:rgb(100%,100%,100%);fill-opacity:1;" d="M 96.800781 47.769531 L 95.894531 55.054688 C 95.894531 55.054688 104.5625 44.890625 106.058594 41.425781 L 106.296875 40.886719 L 96.800781 47.769531 "/>
<path style=" stroke:none;fill-rule:nonzero;fill:rgb(10.998535%,11.399841%,10.598755%);fill-opacity:1;" d="M 99.78125 46.203125 L 99.601563 48.894531 L 100.007813 48.40625 L 100.140625 46.386719 L 100.390625 46.210938 L 100.378906 45.785156 Z M 97.511719 51.464844 L 97.9375 50.972656 L 98.285156 47.640625 L 98.914063 47.269531 L 98.945313 46.863281 L 97.929688 47.460938 Z M 101.890625 45.042969 L 101.871094 44.652344 L 101.394531 44.949219 L 101.457031 46.683594 L 101.789063 46.140625 L 101.753906 45.128906 L 101.890625 45.042969 "/>
<path style=" stroke:none;fill-rule:nonzero;fill:rgb(64.299011%,67.799377%,69.398499%);fill-opacity:1;" d="M 77.546875 36.761719 L 83.941406 44.292969 L 96.734375 47.160156 L 105.820313 40.40625 L 105.578125 40.109375 L 96.792969 46.324219 L 84.480469 43.636719 L 77.84375 36.582031 L 77.546875 36.761719 "/>
<path style=" stroke:none;fill-rule:nonzero;fill:rgb(82.699585%,92.498779%,98.399353%);fill-opacity:1;" d="M 77.007813 35.207031 L 80.292969 38.554688 L 83.703125 35.863281 L 79.699219 32.578125 L 77.664063 32.875 C 77.664063 32.875 77.664063 34.90625 77.007813 35.207031 "/>
<path style=" stroke:none;fill-rule:nonzero;fill:rgb(82.699585%,92.498779%,98.399353%);fill-opacity:1;" d="M 80.652344 38.734375 L 84.121094 36.222656 L 84.121094 42.4375 Z M 80.652344 38.734375 "/>
<path style=" stroke:none;fill-rule:nonzero;fill:rgb(82.699585%,92.498779%,98.399353%);fill-opacity:1;" d="M 84.71875 35.984375 L 84.839844 43.15625 L 85.433594 43.15625 L 90.398438 36.164063 L 90.398438 35.507813 L 84.71875 35.804688 L 84.71875 35.984375 "/>
<path style=" stroke:none;fill-rule:nonzero;fill:rgb(82.699585%,92.498779%,98.399353%);fill-opacity:1;" d="M 90.160156 37.535156 L 90.039063 40.886719 L 86.453125 43.515625 L 85.855469 43.21875 L 90.160156 37.535156 "/>
<path style=" stroke:none;fill-rule:nonzero;fill:rgb(82.699585%,92.498779%,98.399353%);fill-opacity:1;" d="M 90.933594 35.386719 L 90.695313 40.644531 L 94.222656 41.664063 L 96.136719 36.582031 L 90.933594 35.386719 "/>
<path style=" stroke:none;fill-rule:nonzero;fill:rgb(82.699585%,92.498779%,98.399353%);fill-opacity:1;" d="M 96.554688 36.941406 L 94.820313 41.542969 L 97.273438 45.429688 Z M 96.554688 36.941406 "/>
<path style=" stroke:none;fill-rule:nonzero;fill:rgb(82.699585%,92.498779%,98.399353%);fill-opacity:1;" d="M 97.332031 37.058594 L 97.75 44.769531 L 100.855469 39.152344 Z M 97.332031 37.058594 "/>
<path style=" stroke:none;fill-rule:nonzero;fill:rgb(82.699585%,92.498779%,98.399353%);fill-opacity:1;" d="M 101.335938 39.449219 L 102.351563 41.722656 L 99.066406 44.113281 Z M 101.335938 39.449219 "/>
<path style=" stroke:none;fill-rule:nonzero;fill:rgb(82.699585%,92.498779%,98.399353%);fill-opacity:1;" d="M 101.691406 38.914063 L 102.828125 41.363281 L 106.714844 38.792969 L 107.132813 37.476563 L 101.691406 38.914063 "/>
<path style=" stroke:none;fill-rule:nonzero;fill:rgb(64.299011%,67.799377%,69.398499%);fill-opacity:1;" d="M 86.871094 43.753906 L 90.695313 41.484375 L 94.34375 42.199219 L 96.554688 45.488281 L 96.253906 45.726563 L 86.871094 43.753906 "/>
<path style=" stroke:none;fill-rule:nonzero;fill:rgb(98.799133%,92.498779%,2.69928%);fill-opacity:1;" d="M 81.789063 32.277344 L 86.273438 31.738281 L 89.023438 34.25 L 84.660156 34.667969 L 81.789063 32.277344 "/>
<path style=" stroke:none;fill-rule:nonzero;fill:rgb(98.799133%,92.498779%,2.69928%);fill-opacity:1;" d="M 99.066406 36.222656 L 102.53125 34.667969 L 105.820313 36.878906 L 101.636719 38.015625 L 99.066406 36.222656 "/>
<path style=" stroke:none;fill-rule:nonzero;fill:rgb(99.198914%,83.099365%,1.599121%);fill-opacity:1;" d="M 49.152344 27.914063 L 74.914063 30.664063 C 74.914063 30.664063 75.871094 33.355469 74.019531 35.625 L 49.152344 27.914063 "/>
<path style=" stroke:none;fill-rule:nonzero;fill:rgb(100%,100%,100%);fill-opacity:1;" d="M 75.214844 29.828125 C 75.214844 29.828125 76.527344 35.503906 73.78125 36.640625 C 73.78125 36.640625 73.421875 38.136719 75.152344 37.417969 C 75.152344 37.417969 77.722656 35.746094 76.707031 30.007813 C 76.707031 30.007813 75.574219 28.570313 75.214844 29.828125 "/>
<path style=" stroke:none;fill-rule:nonzero;fill:rgb(100%,100%,100%);fill-opacity:1;" d="M 108.628906 35.027344 L 106.714844 40.886719 C 106.714844 40.886719 106.058594 43.453125 107.371094 41.78125 L 109.464844 36.222656 C 109.464844 36.222656 110.0625 34.191406 108.628906 35.027344 "/>
<path style=" stroke:none;fill-rule:nonzero;fill:rgb(98.799133%,92.498779%,2.69928%);fill-opacity:1;" d="M 109.882813 37 L 108.449219 40.945313 L 130.386719 43.453125 Z M 109.882813 37 "/>
<path style=" stroke:none;fill-rule:nonzero;fill:rgb(99.198914%,83.099365%,1.599121%);fill-opacity:1;" d="M 109.226563 38.734375 L 108.449219 40.945313 L 130.027344 43.453125 Z M 109.226563 38.734375 "/>
<path style=" stroke:none;fill-rule:nonzero;fill:rgb(100%,100%,100%);fill-opacity:1;" d="M 103.367188 47.015625 L 104.484375 45.898438 L 104.910156 53.839844 C 104.910156 53.839844 105.402344 56.628906 102.714844 56.792969 L 102.582031 55.613281 C 102.582031 55.613281 103.992188 55.808594 103.828125 53.578125 L 103.367188 47.015625 "/>
<path style=" stroke:none;fill-rule:nonzero;fill:rgb(100%,100%,100%);fill-opacity:1;" d="M 71.085938 12.976563 C 71.085938 12.976563 79.089844 2.800781 80.519531 2.058594 L 80.042969 19.230469 L 72.09375 24.898438 L 71.085938 12.976563 "/>
<path style=" stroke:none;fill-rule:nonzero;fill:rgb(88.999939%,90.99884%,92.498779%);fill-opacity:1;" d="M 72.570313 25.378906 L 75.75 28.769531 L 85.238281 25.378906 L 80.148438 19.601563 L 72.570313 25.378906 "/>
<path style=" stroke:none;fill-rule:nonzero;fill:rgb(100%,100%,100%);fill-opacity:1;" d="M 76.492188 29.035156 C 76.492188 29.035156 77.925781 29.988281 77.710938 31.949219 L 77.660156 32.160156 L 84.921875 30.09375 L 85.449219 25.855469 L 76.492188 29.035156 "/>
<path style=" stroke:none;fill-rule:nonzero;fill:rgb(100%,100%,100%);fill-opacity:1;" d="M 85.554688 29.828125 L 86.828125 29.828125 L 87.675781 25.007813 L 81.792969 18.648438 L 82.21875 2.21875 L 81.210938 1.796875 L 80.46875 18.964844 L 86.03125 25.164063 L 85.554688 29.828125 "/>
<path style=" stroke:none;fill-rule:nonzero;fill:rgb(88.999939%,90.99884%,92.498779%);fill-opacity:1;" d="M 76.070313 6.882813 L 76.8125 21.5625 L 80.257813 19.230469 L 80.679688 1.902344 C 80.679688 1.902344 76.386719 6.300781 76.070313 6.882813 "/>
<path style=" stroke:none;fill-rule:nonzero;fill:rgb(88.198853%,12.199402%,14.898682%);fill-opacity:1;" d="M 95.148438 14.992188 C 95.148438 14.992188 96.367188 8.578125 99.972656 5.507813 L 97.796875 15.046875 C 97.796875 15.046875 95.945313 15.363281 95.148438 14.992188 "/>
<path style=" stroke:none;fill-rule:nonzero;fill:rgb(100%,100%,100%);fill-opacity:1;" d="M 100.449219 33.804688 L 101.402344 26.703125 C 101.402344 26.703125 109.191406 21.617188 109.671875 21.035156 C 110.148438 20.449219 111.421875 17.746094 111.421875 17.746094 L 115.554688 7.519531 L 117.566406 7.519531 L 111.632813 20.503906 C 111.632813 20.503906 110.890625 22.464844 109.085938 23.3125 L 103.097656 27.289063 L 102.039063 33.117188 L 100.449219 33.804688 "/>
<path style=" stroke:none;fill-rule:nonzero;fill:rgb(88.999939%,90.99884%,92.498779%);fill-opacity:1;" d="M 118.257813 8.050781 C 118.257813 8.050781 112.316406 22.304688 110.199219 23.3125 L 103.679688 27.5 L 102.566406 32.535156 L 107.335938 36.351563 L 109.300781 33.066406 L 104 28.136719 L 104.265625 27.816406 L 109.671875 32.695313 L 115.445313 29.832031 L 111.261719 23.367188 L 111.683594 23.152344 L 115.765625 29.355469 L 122.546875 18.171875 C 122.546875 18.171875 121.277344 11.386719 118.257813 8.050781 "/>
<path style=" stroke:none;fill-rule:nonzero;fill:rgb(100%,100%,100%);fill-opacity:1;" d="M 120.269531 11.28125 L 113.007813 24.902344 L 113.695313 26.121094 L 120.957031 12.980469 C 120.957031 12.980469 120.851563 11.8125 120.269531 11.28125 "/>
<path style=" stroke:none;fill-rule:nonzero;fill:rgb(82.398987%,82.699585%,81.999207%);fill-opacity:1;" d="M 102.089844 25.910156 C 102.089844 25.910156 100.546875 23.753906 94.300781 23.753906 C 92.53125 23.753906 90.382813 23.929688 87.78125 24.371094 L 84.496094 20.769531 C 84.496094 20.769531 89.976563 15.617188 95.257813 15.617188 C 95.59375 15.617188 95.925781 15.636719 96.261719 15.683594 C 96.261719 15.683594 102.253906 15.84375 106.332031 22.835938 L 102.089844 25.910156 "/>
<path style=" stroke:none;fill-rule:nonzero;fill:rgb(10.998535%,11.399841%,10.598755%);fill-opacity:1;" d="M 101.105469 20.839844 C 101.105469 20.839844 101.179688 20.933594 101.292969 21.09375 C 101.640625 21.566406 102.367188 22.652344 102.527344 23.253906 C 102.582031 23.453125 102.789063 23.570313 102.984375 23.515625 C 103.183594 23.460938 103.300781 23.253906 103.246094 23.054688 C 103.085938 22.496094 102.703125 21.855469 102.359375 21.320313 C 102.011719 20.792969 101.703125 20.390625 101.699219 20.382813 C 101.574219 20.21875 101.339844 20.1875 101.175781 20.316406 C 101.011719 20.441406 100.980469 20.675781 101.105469 20.839844 "/>
<path style=" stroke:none;fill-rule:nonzero;fill:rgb(10.998535%,11.399841%,10.598755%);fill-opacity:1;" d="M 101.140625 19.183594 L 101.222656 19.261719 C 101.402344 19.445313 101.867188 19.933594 102.304688 20.515625 C 102.742188 21.09375 103.136719 21.777344 103.207031 22.257813 C 103.238281 22.460938 103.429688 22.601563 103.632813 22.570313 C 103.835938 22.539063 103.976563 22.347656 103.945313 22.144531 C 103.808594 21.316406 103.230469 20.484375 102.699219 19.808594 C 102.167969 19.140625 101.671875 18.652344 101.664063 18.648438 C 101.515625 18.503906 101.277344 18.507813 101.136719 18.652344 C 100.992188 18.800781 100.992188 19.039063 101.140625 19.183594 "/>
<path style=" stroke:none;fill-rule:nonzero;fill:rgb(90.19928%,31.399536%,14.498901%);fill-opacity:1;" d="M 88.097656 24.746094 L 87.78125 26.226563 C 87.78125 26.226563 98.011719 26.386719 100.765625 27.976563 L 101.558594 25.910156 C 101.558594 25.910156 99.761719 22.996094 88.097656 24.746094 "/>
<path style=" stroke:none;fill-rule:nonzero;fill:rgb(90.19928%,31.399536%,14.498901%);fill-opacity:1;" d="M 87.675781 26.652344 L 87.570313 27.289063 C 87.570313 27.289063 91.808594 27.765625 91.652344 34.285156 L 91.542969 34.441406 L 93.609375 34.496094 L 94.832031 27.289063 C 94.832031 27.289063 90.699219 26.441406 87.675781 26.652344 "/>
<path style=" stroke:none;fill-rule:nonzero;fill:rgb(90.19928%,31.399536%,14.498901%);fill-opacity:1;" d="M 95.46875 27.394531 C 95.46875 27.394531 99.546875 28.242188 100.609375 29.089844 L 100.503906 30.203125 C 100.503906 30.203125 97.375 31.632813 96.632813 34.125 C 96.632813 34.125 98.914063 32.164063 100.183594 32.21875 L 99.867188 34.230469 L 97.164063 35.925781 L 93.875 34.867188 L 95.46875 27.394531 "/>
<path style=" stroke:none;fill-rule:nonzero;fill:rgb(90.19928%,31.399536%,14.498901%);fill-opacity:1;" d="M 87.625 27.871094 C 87.625 27.871094 91.914063 29.726563 91.171875 34.019531 L 87.253906 30.890625 L 87.625 27.871094 "/>
<path style=" stroke:none;fill-rule:nonzero;fill:rgb(100%,100%,100%);fill-opacity:1;" d="M 92.074219 24.585938 L 91.96875 25.273438 L 99.28125 26.546875 L 99.386719 25.59375 C 99.386719 25.59375 98.539063 24.425781 92.074219 24.585938 "/>
<path style=" stroke:none;fill-rule:nonzero;fill:rgb(100%,99.198914%,93.699646%);fill-opacity:1;" d="M 3.117188 82.050781 C 3.117188 82.050781 0.996094 69.171875 13.34375 59.746094 C 13.34375 59.746094 21.574219 52.707031 30.601563 56.292969 C 30.601563 56.292969 10.023438 54.699219 3.117188 82.050781 "/>
<path style=" stroke:none;fill-rule:nonzero;fill:rgb(64.698792%,63.899231%,59.999084%);fill-opacity:1;" d="M 3.117188 82.050781 C 4.140625 77.996094 5.46875 74.574219 6.980469 71.695313 C 7.941406 70 8.925781 68.464844 9.726563 67.273438 C 11.113281 65.386719 12.585938 63.820313 14.078125 62.523438 C 15.972656 60.996094 17.757813 59.828125 19.40625 58.9375 C 24.175781 56.527344 28.410156 56.273438 29.96875 56.273438 C 30.378906 56.273438 30.601563 56.292969 30.601563 56.292969 C 12.8125 62.398438 3.117188 82.050781 3.117188 82.050781 "/>
<path style=" stroke:none;fill-rule:nonzero;fill:rgb(100%,99.198914%,93.699646%);fill-opacity:1;" d="M 3.117188 82.050781 C 3.300781 78.921875 5.097656 75.007813 6.980469 71.695313 C 5.46875 74.574219 4.140625 77.996094 3.117188 82.050781 M 9.726563 67.273438 C 10.753906 65.75 11.484375 64.789063 11.484375 64.789063 C 12.367188 63.957031 13.234375 63.207031 14.078125 62.523438 C 12.585938 63.820313 11.113281 65.386719 9.726563 67.273438 M 19.40625 58.9375 C 23.757813 56.582031 27.140625 56.164063 29.003906 56.164063 C 30.035156 56.164063 30.601563 56.292969 30.601563 56.292969 C 30.601563 56.292969 30.378906 56.273438 29.96875 56.273438 C 28.410156 56.273438 24.175781 56.527344 19.40625 58.9375 "/>
<path style=" stroke:none;fill-rule:nonzero;fill:rgb(96.899414%,96.099854%,90.19928%);fill-opacity:1;" d="M 10.289063 90.414063 C 10.289063 90.414063 4.710938 88.953125 6.703125 82.847656 C 8.695313 76.738281 16.660156 68.773438 27.148438 68.90625 C 37.640625 69.039063 40.957031 74.347656 41.355469 77.933594 C 41.355469 77.933594 43.480469 76.472656 44.011719 71.960938 C 44.011719 71.960938 44.808594 77.933594 40.691406 80.589844 C 40.691406 80.589844 34.71875 66.914063 20.246094 74.882813 C 20.246094 74.882813 7.632813 82.316406 10.289063 90.414063 "/>
<path style=" stroke:none;fill-rule:nonzero;fill:rgb(95.298767%,95.698547%,95.698547%);fill-opacity:1;" d="M 12.148438 85.371094 L 12.542969 99.175781 C 12.542969 99.175781 22.105469 86.429688 41.488281 85.636719 L 35.25 75.675781 C 35.25 75.675781 20.777344 68.375 12.148438 85.371094 "/>
<path style=" stroke:none;fill-rule:nonzero;fill:rgb(100%,100%,100%);fill-opacity:1;" d="M 15.996094 80.894531 C 15.996094 80.894531 15.464844 92.808594 16.660156 94.796875 L 18.253906 93.269531 C 18.253906 93.269531 16.660156 81.351563 17.324219 80.589844 L 15.996094 80.894531 "/>
<path style=" stroke:none;fill-rule:nonzero;fill:rgb(96.899414%,96.099854%,90.19928%);fill-opacity:1;" d="M 12.148438 85.371094 L 12.148438 87.359375 L 14.136719 85.238281 C 14.136719 85.238281 14.269531 85.101563 14.800781 83.90625 C 15.332031 82.714844 15.996094 81.253906 15.996094 81.253906 C 15.996094 81.253906 16.261719 81.785156 16.925781 81.785156 C 17.589844 81.785156 18.519531 81.253906 19.050781 80.722656 C 19.582031 80.191406 19.050781 79.527344 19.714844 78.996094 C 20.378906 78.464844 25.957031 76.210938 26.484375 76.339844 C 27.015625 76.472656 27.945313 77.140625 28.742188 77.535156 C 29.539063 77.933594 30.203125 77.671875 31.265625 77.800781 C 32.328125 77.933594 33.65625 79.394531 33.65625 79.394531 L 36.179688 83.90625 L 37.640625 84.441406 L 38.4375 83.511719 L 34.585938 75.410156 C 34.585938 75.410156 28.742188 71.828125 19.980469 76.210938 C 19.980469 76.210938 13.210938 80.722656 12.148438 85.371094 "/>
<path style=" stroke:none;fill-rule:nonzero;fill:rgb(54.098511%,64.698792%,83.499146%);fill-opacity:1;" d="M 10.953125 106.082031 C 10.953125 106.082031 17.191406 87.359375 43.480469 87.226563 C 43.480469 87.226563 44.542969 87.492188 45.871094 89.21875 L 51.046875 96.523438 C 51.046875 96.523438 25.957031 105.683594 20.246094 135.820313 C 20.246094 135.820313 10.820313 117.632813 10.953125 106.082031 "/>
<path style=" stroke:none;fill-rule:nonzero;fill:rgb(10.998535%,11.399841%,10.598755%);fill-opacity:1;" d="M 21.574219 130.378906 C 21.566406 130.371094 21.558594 130.363281 21.550781 130.355469 C 22.179688 128.179688 22.914063 126.132813 23.730469 124.203125 L 21.574219 130.378906 M 12.8125 102.347656 C 12.8125 102.273438 12.808594 102.230469 12.808594 102.230469 L 13.207031 101.726563 C 13.070313 101.9375 12.9375 102.144531 12.8125 102.347656 "/>
<path style=" stroke:none;fill-rule:nonzero;fill:rgb(41.999817%,48.999023%,62.399292%);fill-opacity:1;" d="M 21.550781 130.355469 C 13.707031 122.730469 12.871094 104.007813 12.8125 102.347656 C 12.9375 102.144531 13.070313 101.9375 13.207031 101.726563 L 16.261719 97.847656 L 24.496094 122.011719 L 23.730469 124.203125 C 22.914063 126.132813 22.179688 128.179688 21.550781 130.355469 "/>
<path style=" stroke:none;fill-rule:nonzero;fill:rgb(10.998535%,11.399841%,10.598755%);fill-opacity:1;" d="M 26.484375 119.09375 C 26.441406 119.015625 26.394531 118.9375 26.347656 118.859375 C 26.914063 117.859375 27.496094 116.894531 28.097656 115.972656 L 28.210938 116.304688 L 26.484375 119.09375 M 18.960938 95.257813 C 18.933594 95.128906 18.917969 95.058594 18.917969 95.058594 L 20.511719 93.867188 L 20.558594 94.003906 C 19.996094 94.417969 19.464844 94.835938 18.960938 95.257813 "/>
<path style=" stroke:none;fill-rule:nonzero;fill:rgb(41.999817%,48.999023%,62.399292%);fill-opacity:1;" d="M 26.347656 118.859375 C 22.90625 112.824219 19.390625 97.191406 18.960938 95.257813 C 19.464844 94.835938 19.996094 94.417969 20.558594 94.003906 L 28.097656 115.972656 C 27.496094 116.894531 26.914063 117.859375 26.347656 118.859375 "/>
<path style=" stroke:none;fill-rule:nonzero;fill:rgb(73.298645%,73.298645%,72.898865%);fill-opacity:1;" d="M 49.1875 97.71875 L 48.96875 97.433594 C 49.421875 97.214844 49.816406 97.035156 50.128906 96.898438 L 50.25 97.050781 L 49.1875 97.71875 M 41.675781 87.265625 L 42.285156 86.964844 L 42.503906 87.242188 C 42.226563 87.246094 41.949219 87.257813 41.675781 87.265625 "/>
<path style=" stroke:none;fill-rule:nonzero;fill:rgb(86.299133%,89.399719%,95.298767%);fill-opacity:1;" d="M 48.96875 97.433594 L 41.222656 87.492188 L 41.675781 87.265625 C 41.949219 87.257813 42.226563 87.246094 42.503906 87.242188 L 50.128906 96.898438 C 49.816406 97.035156 49.421875 97.214844 48.96875 97.433594 "/>
<path style=" stroke:none;fill-rule:nonzero;fill:rgb(54.098511%,64.698792%,83.499146%);fill-opacity:1;" d="M 42.550781 102.363281 C 42.550781 102.363281 21.175781 120.554688 22.636719 139.804688 C 22.636719 139.804688 23.300781 145.113281 25.554688 147.238281 C 25.554688 147.238281 26.882813 138.609375 31.53125 137.015625 C 31.53125 137.015625 27.015625 130.246094 35.648438 124.402344 C 35.648438 124.402344 33.65625 115.507813 42.417969 111.257813 C 42.417969 111.257813 39.496094 108.074219 42.550781 102.363281 "/>
<path style=" stroke:none;fill-rule:nonzero;fill:rgb(10.998535%,11.399841%,10.598755%);fill-opacity:1;" d="M 22.503906 137.015625 C 22.503906 137.015625 21.839844 127.855469 31.664063 114.3125 C 31.664063 114.3125 31.648438 114.359375 31.613281 114.453125 C 27.117188 120.644531 22.878906 128.625 22.582031 136.972656 L 22.503906 137.015625 "/>
<path style=" stroke:none;fill-rule:nonzero;fill:rgb(41.999817%,48.999023%,62.399292%);fill-opacity:1;" d="M 22.582031 136.972656 C 22.878906 128.625 27.117188 120.644531 31.613281 114.453125 C 31.121094 115.855469 27.113281 127.570313 28.609375 133.433594 L 22.582031 136.972656 "/>
<path style=" stroke:none;fill-rule:nonzero;fill:rgb(73.298645%,73.298645%,72.898865%);fill-opacity:1;" d="M 36.046875 108.867188 C 37.105469 107.28125 40.613281 104.089844 41.988281 102.859375 C 40.988281 103.761719 38.761719 105.855469 36.152344 108.804688 C 36.082031 108.847656 36.046875 108.867188 36.046875 108.867188 M 41.246094 106.121094 C 41.40625 105.03125 41.796875 103.773438 42.550781 102.363281 C 42.285156 103.691406 41.355469 106.082031 41.355469 106.082031 C 41.320313 106.09375 41.285156 106.109375 41.246094 106.121094 "/>
<path style=" stroke:none;fill-rule:nonzero;fill:rgb(86.299133%,89.399719%,95.298767%);fill-opacity:1;" d="M 36.152344 108.804688 C 38.761719 105.855469 40.988281 103.761719 41.988281 102.859375 C 42.339844 102.546875 42.550781 102.363281 42.550781 102.363281 C 41.796875 103.773438 41.40625 105.03125 41.246094 106.121094 C 39.867188 106.660156 36.769531 108.449219 36.152344 108.804688 "/>
<path style=" stroke:none;fill-rule:nonzero;fill:rgb(78.399658%,82.398987%,92.199707%);fill-opacity:1;" d="M 50.25 98.382813 C 50.25 98.382813 40.160156 101.566406 44.011719 111.523438 L 45.207031 111.390625 C 45.207031 111.390625 43.082031 104.089844 50.25 98.382813 "/>
<path style=" stroke:none;fill-rule:nonzero;fill:rgb(78.399658%,82.398987%,92.199707%);fill-opacity:1;" d="M 42.949219 112.585938 C 42.949219 112.585938 35.78125 115.375 37.242188 123.210938 L 38.035156 123.605469 C 38.035156 123.605469 37.90625 116.4375 42.949219 112.585938 "/>
<path style=" stroke:none;fill-rule:nonzero;fill:rgb(78.399658%,82.398987%,92.199707%);fill-opacity:1;" d="M 36.707031 125.199219 L 37.242188 125.597656 C 37.242188 125.597656 31 131.175781 33.789063 137.015625 L 32.195313 137.015625 C 32.195313 137.015625 29.140625 129.714844 36.707031 125.199219 "/>
<path style=" stroke:none;fill-rule:nonzero;fill:rgb(78.399658%,82.398987%,92.199707%);fill-opacity:1;" d="M 31.398438 138.34375 L 32.0625 138.476563 C 32.0625 138.476563 26.75 143.65625 27.546875 148.304688 L 26.75 148.035156 C 26.75 148.035156 26.882813 140.601563 31.398438 138.34375 "/>
<path style=" stroke:none;fill-rule:nonzero;fill:rgb(78.399658%,82.398987%,92.199707%);fill-opacity:1;" d="M 46.269531 111.257813 C 46.269531 111.257813 44.144531 103.027344 53.570313 97.847656 C 53.570313 97.847656 67.246094 102.363281 76.9375 111.390625 C 76.9375 111.390625 78.398438 118.695313 72.558594 122.679688 L 46.269531 111.257813 "/>
<path style=" stroke:none;fill-rule:nonzero;fill:rgb(78.399658%,82.398987%,92.199707%);fill-opacity:1;" d="M 45.339844 113.117188 C 45.339844 113.117188 38.304688 118.03125 39.363281 124.933594 L 66.714844 134.492188 C 66.714844 134.492188 74.683594 128.785156 72.292969 123.738281 L 45.339844 113.117188 "/>
<path style=" stroke:none;fill-rule:nonzero;fill:rgb(78.399658%,82.398987%,92.199707%);fill-opacity:1;" d="M 38.304688 126.527344 C 38.304688 126.527344 31.398438 132.234375 34.851563 137.546875 L 58.882813 144.984375 C 58.882813 144.984375 66.714844 141.929688 65.519531 135.160156 L 38.304688 126.527344 "/>
<path style=" stroke:none;fill-rule:nonzero;fill:rgb(78.399658%,82.398987%,92.199707%);fill-opacity:1;" d="M 34.054688 139.273438 C 34.054688 139.273438 27.679688 143.789063 28.609375 149.761719 C 28.609375 149.761719 39.894531 157.996094 53.703125 158.128906 C 53.703125 158.128906 60.078125 151.355469 59.148438 145.914063 C 59.148438 145.914063 42.550781 143.125 34.054688 139.273438 "/>
<path style=" stroke:none;fill-rule:nonzero;fill:rgb(85.099792%,87.5%,94.499207%);fill-opacity:1;" d="M 71.761719 108.867188 C 71.761719 108.867188 60.210938 104.089844 55.5625 103.425781 C 55.5625 103.425781 55.417969 103.433594 55.191406 103.433594 C 54.394531 103.433594 52.554688 103.351563 52.242188 102.628906 C 52.242188 102.628906 52.046875 102.019531 52.148438 101.375 C 52.398438 101.820313 52.738281 101.976563 53.089844 101.976563 C 53.894531 101.976563 54.765625 101.167969 54.765625 101.167969 C 55.828125 101.167969 64.324219 104.222656 64.324219 104.222656 C 64.324219 104.222656 63.660156 103.425781 58.21875 101.035156 C 56.527344 100.292969 55.300781 100.039063 54.40625 100.039063 C 53.035156 100.039063 52.460938 100.644531 52.238281 101.015625 C 52.453125 100.417969 53.003906 99.886719 54.300781 99.886719 C 54.59375 99.886719 54.921875 99.914063 55.296875 99.972656 C 59.414063 100.636719 70.433594 107.542969 71.761719 108.867188 "/>
<path style=" stroke:none;fill-rule:nonzero;fill:rgb(93.699646%,94.898987%,97.999573%);fill-opacity:1;" d="M 52.148438 101.375 C 52.136719 101.351563 52.125 101.328125 52.109375 101.300781 C 52.109375 101.300781 52.140625 101.183594 52.238281 101.015625 C 52.199219 101.136719 52.167969 101.257813 52.148438 101.375 "/>
<path style=" stroke:none;fill-rule:nonzero;fill:rgb(95.698547%,96.499634%,98.399353%);fill-opacity:1;" d="M 64.324219 104.222656 C 64.324219 104.222656 55.828125 101.167969 54.765625 101.167969 C 54.765625 101.167969 53.894531 101.976563 53.089844 101.976563 C 52.738281 101.976563 52.398438 101.820313 52.148438 101.375 C 52.167969 101.257813 52.199219 101.136719 52.238281 101.015625 C 52.460938 100.644531 53.035156 100.039063 54.40625 100.039063 C 55.300781 100.039063 56.527344 100.292969 58.21875 101.035156 C 63.660156 103.425781 64.324219 104.222656 64.324219 104.222656 "/>
<path style=" stroke:none;fill-rule:nonzero;fill:rgb(10.998535%,11.399841%,10.598755%);fill-opacity:1;" d="M 64.191406 119.226563 L 46.269531 111.257813 C 46.269531 111.257813 45.339844 109.136719 46.003906 107.144531 C 46.003906 107.144531 46.082031 107.183594 46.230469 107.261719 C 45.835938 109.578125 46.269531 111.257813 46.269531 111.257813 L 64.453125 119.15625 L 64.191406 119.226563 "/>
<path style=" stroke:none;fill-rule:nonzero;fill:rgb(57.998657%,60.798645%,67.498779%);fill-opacity:1;" d="M 64.453125 119.15625 L 46.269531 111.257813 C 46.269531 111.257813 45.835938 109.578125 46.230469 107.261719 C 48.226563 108.285156 62.941406 115.796875 69.371094 117.898438 L 64.453125 119.15625 "/>
<path style=" stroke:none;fill-rule:nonzero;fill:rgb(85.099792%,87.5%,94.499207%);fill-opacity:1;" d="M 68.308594 123.476563 C 68.308594 123.476563 48.128906 119.359375 47.066406 119.226563 C 47.066406 119.226563 46.628906 119.296875 46.074219 119.296875 C 45.335938 119.296875 44.390625 119.167969 44.011719 118.5625 C 44.011719 118.5625 43.308594 116.316406 46.707031 116.316406 C 47.980469 116.316406 49.828125 116.632813 52.507813 117.5 C 62.335938 120.683594 68.308594 123.476563 68.308594 123.476563 M 46.402344 117.5 L 60.210938 120.421875 C 60.210938 120.421875 56.625 118.828125 50.648438 117.101563 C 49.066406 116.644531 47.851563 116.476563 46.929688 116.476563 C 44.371094 116.476563 44.011719 117.765625 44.011719 117.765625 C 44.339844 117.984375 44.664063 118.0625 44.964844 118.0625 C 45.769531 118.0625 46.402344 117.5 46.402344 117.5 "/>
<path style=" stroke:none;fill-rule:nonzero;fill:rgb(10.998535%,11.399841%,10.598755%);fill-opacity:1;" d="M 61.007813 132.636719 L 39.363281 124.933594 C 38.835938 123.605469 39.761719 120.019531 39.761719 120.019531 C 39.777344 120.046875 39.816406 120.085938 39.867188 120.125 C 39.34375 121.570313 39.097656 123.1875 39.363281 124.933594 L 61.070313 132.519531 L 61.007813 132.636719 "/>
<path style=" stroke:none;fill-rule:nonzero;fill:rgb(57.998657%,60.798645%,67.498779%);fill-opacity:1;" d="M 61.070313 132.519531 L 39.363281 124.933594 C 39.097656 123.1875 39.34375 121.570313 39.867188 120.125 C 41.609375 121.476563 62.601563 129.847656 62.601563 129.847656 L 61.070313 132.519531 "/>
<path style=" stroke:none;fill-rule:nonzero;fill:rgb(95.698547%,96.499634%,98.399353%);fill-opacity:1;" d="M 60.210938 120.421875 L 46.402344 117.5 C 46.402344 117.5 45.769531 118.0625 44.964844 118.0625 C 44.664063 118.0625 44.339844 117.984375 44.011719 117.765625 C 44.011719 117.765625 44.371094 116.476563 46.929688 116.476563 C 47.851563 116.476563 49.066406 116.644531 50.648438 117.101563 C 56.625 118.828125 60.210938 120.421875 60.210938 120.421875 "/>
<path style=" stroke:none;fill-rule:nonzero;fill:rgb(85.099792%,87.5%,94.499207%);fill-opacity:1;" d="M 56.625 134.359375 C 56.625 134.359375 42.019531 131.574219 39.894531 131.574219 C 39.894531 131.574219 39.113281 133.222656 37.902344 133.222656 C 37.617188 133.222656 37.304688 133.128906 36.976563 132.902344 C 36.976563 132.902344 35.570313 129.269531 39.582031 129.269531 C 39.839844 129.269531 40.121094 129.285156 40.425781 129.316406 C 45.472656 129.847656 56.625 134.359375 56.625 134.359375 M 39.273438 129.53125 C 39.011719 129.53125 38.773438 129.546875 38.566406 129.582031 C 36.175781 129.976563 36.976563 132.503906 36.976563 132.503906 L 38.171875 131.308594 L 40.558594 130.378906 L 47.863281 131.308594 C 47.863281 131.308594 42.089844 129.53125 39.273438 129.53125 "/>
<path style=" stroke:none;fill-rule:nonzero;fill:rgb(10.998535%,11.399841%,10.598755%);fill-opacity:1;" d="M 57.554688 144.71875 C 57.554688 144.71875 35.78125 138.476563 34.851563 137.546875 C 34.691406 137.390625 34.566406 137.152344 34.460938 136.863281 C 34.574219 137.09375 34.703125 137.320313 34.851563 137.546875 L 57.609375 144.589844 L 57.554688 144.71875 M 34.054688 132.90625 C 34.054688 132.902344 34.054688 132.902344 34.054688 132.902344 C 34.054688 132.902344 34.054688 132.90625 34.054688 132.90625 "/>
<path style=" stroke:none;fill-rule:nonzero;fill:rgb(57.998657%,60.798645%,67.498779%);fill-opacity:1;" d="M 57.609375 144.589844 L 34.851563 137.546875 C 34.703125 137.320313 34.574219 137.09375 34.460938 136.863281 C 33.976563 135.503906 34.050781 133.050781 34.054688 132.90625 C 34.054688 132.90625 34.054688 132.902344 34.054688 132.902344 C 34.613281 133.707031 58.882813 141.664063 58.882813 141.664063 L 57.609375 144.589844 "/>
<path style=" stroke:none;fill-rule:nonzero;fill:rgb(85.099792%,87.5%,94.499207%);fill-opacity:1;" d="M 54.347656 147.125 C 54.050781 147.125 51.4375 146.546875 48.445313 145.96875 C 45.457031 145.390625 42.089844 144.8125 40.296875 144.8125 C 40.042969 144.8125 39.816406 144.824219 39.628906 144.851563 C 37.273438 145.171875 35.609375 145.925781 34.5625 145.925781 C 34.3125 145.925781 34.101563 145.882813 33.921875 145.777344 C 33.921875 145.777344 33.105469 144.695313 33.15625 143.757813 C 33.222656 144.03125 33.414063 144.359375 33.964844 144.359375 C 34.070313 144.359375 34.1875 144.347656 34.320313 144.320313 C 35.648438 144.054688 38.566406 143.65625 38.566406 143.65625 L 46.003906 144.984375 C 46.003906 144.984375 42.488281 143.617188 39.105469 142.898438 C 44.984375 144.039063 54.03125 146.882813 54.367188 147.105469 C 54.386719 147.117188 54.378906 147.125 54.347656 147.125 M 33.488281 142.980469 C 33.816406 142.652344 34.425781 142.429688 35.46875 142.429688 C 35.683594 142.429688 35.921875 142.441406 36.179688 142.460938 C 36.347656 142.472656 36.523438 142.492188 36.707031 142.511719 C 36.347656 142.480469 36.003906 142.460938 35.675781 142.460938 C 34.746094 142.460938 33.972656 142.609375 33.488281 142.980469 "/>
<path style=" stroke:none;fill-rule:nonzero;fill:rgb(10.998535%,11.399841%,10.598755%);fill-opacity:1;" d="M 49.457031 157.863281 C 43.878906 157.726563 29.273438 151.753906 28.609375 149.761719 C 27.945313 147.769531 29.273438 144.851563 29.273438 144.851563 C 29.289063 144.878906 29.3125 144.910156 29.339844 144.941406 C 28.695313 146.371094 28.335938 148.003906 28.609375 149.761719 C 28.609375 149.761719 37.65625 156.359375 49.460938 157.835938 L 49.457031 157.863281 "/>
<path style=" stroke:none;fill-rule:nonzero;fill:rgb(57.998657%,60.798645%,67.498779%);fill-opacity:1;" d="M 49.460938 157.835938 C 37.65625 156.359375 28.609375 149.761719 28.609375 149.761719 C 28.335938 148.003906 28.695313 146.371094 29.339844 144.941406 C 30.832031 146.609375 50.121094 154.144531 50.121094 154.144531 L 49.460938 157.835938 "/>
<path style=" stroke:none;fill-rule:nonzero;fill:rgb(93.699646%,94.898987%,97.999573%);fill-opacity:1;" d="M 33.15625 143.757813 C 33.105469 143.558594 33.125 143.390625 33.125 143.390625 C 33.214844 143.230469 33.335938 143.09375 33.488281 142.980469 C 33.265625 143.203125 33.167969 143.472656 33.15625 143.757813 M 39.105469 142.898438 C 38.222656 142.726563 37.40625 142.59375 36.707031 142.511719 C 37.464844 142.582031 38.28125 142.722656 39.105469 142.898438 "/>
<path style=" stroke:none;fill-rule:nonzero;fill:rgb(95.698547%,96.499634%,98.399353%);fill-opacity:1;" d="M 46.003906 144.984375 L 38.566406 143.65625 C 38.566406 143.65625 35.648438 144.054688 34.320313 144.320313 C 34.1875 144.347656 34.070313 144.359375 33.964844 144.359375 C 33.414063 144.359375 33.222656 144.03125 33.15625 143.757813 C 33.167969 143.472656 33.265625 143.203125 33.488281 142.980469 C 33.972656 142.609375 34.746094 142.460938 35.675781 142.460938 C 36.003906 142.460938 36.347656 142.480469 36.707031 142.511719 C 37.40625 142.59375 38.222656 142.726563 39.105469 142.898438 C 42.488281 143.617188 46.003906 144.984375 46.003906 144.984375 "/>
<path style=" stroke:none;fill-rule:nonzero;fill:rgb(95.698547%,96.499634%,98.399353%);fill-opacity:1;" d="M 36.976563 132.503906 C 36.976563 132.503906 36.175781 129.976563 38.566406 129.582031 C 38.773438 129.546875 39.011719 129.53125 39.273438 129.53125 C 42.089844 129.53125 47.863281 131.308594 47.863281 131.308594 L 40.558594 130.378906 L 38.171875 131.308594 L 36.976563 132.503906 "/>
<path style=" stroke:none;fill-rule:nonzero;fill:rgb(78.399658%,82.398987%,92.199707%);fill-opacity:1;" d="M 60.078125 146.445313 C 60.078125 146.445313 59.8125 152.949219 56.226563 156.800781 C 56.226563 156.800781 61.40625 153.214844 61.140625 147.105469 L 60.078125 146.445313 "/>
<path style=" stroke:none;fill-rule:nonzero;fill:rgb(78.399658%,82.398987%,92.199707%);fill-opacity:1;" d="M 61.539063 144.71875 L 62.734375 144.984375 C 62.734375 144.984375 66.847656 143.921875 66.714844 137.8125 C 66.714844 137.8125 64.324219 144.585938 61.539063 144.71875 "/>
<path style=" stroke:none;fill-rule:nonzero;fill:rgb(78.399658%,82.398987%,92.199707%);fill-opacity:1;" d="M 67.777344 134.761719 C 67.777344 134.761719 75.480469 134.097656 74.019531 126.128906 C 74.019531 126.128906 72.425781 133.167969 67.777344 134.761719 "/>
<path style=" stroke:none;fill-rule:nonzero;fill:rgb(78.399658%,82.398987%,92.199707%);fill-opacity:1;" d="M 73.753906 122.808594 C 73.753906 122.808594 79.0625 123.078125 79.0625 115.109375 L 78.265625 113.914063 C 78.265625 113.914063 76.804688 121.75 73.753906 122.808594 "/>
<path style=" stroke:none;fill-rule:nonzero;fill:rgb(78.399658%,82.398987%,92.199707%);fill-opacity:1;" d="M 80.523438 115.507813 L 80.390625 118.164063 L 83.445313 118.5625 Z M 80.523438 115.507813 "/>
<path style=" stroke:none;fill-rule:nonzero;fill:rgb(78.399658%,82.398987%,92.199707%);fill-opacity:1;" d="M 79.859375 120.421875 C 79.859375 120.421875 86.101563 116.96875 86.101563 123.078125 C 86.101563 123.078125 83.976563 119.757813 79.859375 120.421875 "/>
<path style=" stroke:none;fill-rule:nonzero;fill:rgb(78.399658%,82.398987%,92.199707%);fill-opacity:1;" d="M 74.550781 124.003906 L 78.929688 121.484375 C 78.929688 121.484375 84.507813 120.421875 85.304688 125.335938 C 85.304688 125.335938 80.257813 133.832031 76.9375 137.28125 C 76.9375 137.28125 73.351563 137.945313 71.230469 135.554688 C 71.230469 135.554688 75.34375 134.761719 76.140625 130.246094 C 76.9375 125.730469 74.550781 124.003906 74.550781 124.003906 "/>
<path style=" stroke:none;fill-rule:nonzero;fill:rgb(93.699646%,94.898987%,97.999573%);fill-opacity:1;" d="M 75.875 135.554688 L 81.585938 126.394531 C 81.585938 126.394531 79.0625 125.335938 81.71875 123.34375 C 81.71875 123.34375 81.988281 123.28125 82.355469 123.28125 C 83.199219 123.28125 84.558594 123.601563 84.375 125.730469 C 84.375 125.730469 79.195313 134.890625 75.875 135.554688 "/>
<path style=" stroke:none;fill-rule:nonzero;fill:rgb(78.399658%,82.398987%,92.199707%);fill-opacity:1;" d="M 68.972656 136.222656 C 68.972656 136.222656 71.230469 139.273438 74.949219 138.210938 L 70.832031 136.085938 L 68.972656 136.222656 "/>
<path style=" stroke:none;fill-rule:nonzero;fill:rgb(78.399658%,82.398987%,92.199707%);fill-opacity:1;" d="M 67.910156 136.484375 L 68.175781 139.140625 L 70.300781 140.335938 L 73.089844 139.539063 C 73.089844 139.539063 68.839844 137.8125 68.441406 136.484375 L 67.910156 136.484375 "/>
<g clip-path="url(#clip2)" clip-rule="nonzero">
<path style=" stroke:none;fill-rule:nonzero;fill:rgb(78.399658%,82.398987%,92.199707%);fill-opacity:1;" d="M 119.882813 143.957031 C 119.882813 143.957031 129.992188 141.921875 139.289063 142.652344 C 139.289063 142.652344 142.140625 142.40625 143.609375 147.136719 L 148.992188 163.363281 L 124.855469 163.117188 C 124.855469 163.117188 122.167969 144.53125 119.882813 143.957031 "/>
</g>
<g clip-path="url(#clip3)" clip-rule="nonzero">
<path style=" stroke:none;fill-rule:nonzero;fill:rgb(10.998535%,11.399841%,10.598755%);fill-opacity:1;" d="M 128.6875 163.199219 L 124.855469 163.117188 L 128.679688 163.15625 L 128.6875 163.199219 M 124.417969 160.300781 C 123.574219 155.167969 121.660156 144.753906 119.882813 143.957031 C 121.605469 144.390625 123.5625 155.078125 124.417969 160.300781 M 123.722656 143.332031 L 123.878906 143.304688 L 123.878906 143.308594 C 123.828125 143.316406 123.773438 143.324219 123.722656 143.332031 "/>
<path style=" stroke:none;fill-rule:nonzero;fill:rgb(57.998657%,60.798645%,67.498779%);fill-opacity:1;" d="M 128.679688 163.15625 L 124.855469 163.117188 C 124.855469 163.109375 124.695313 161.992188 124.417969 160.300781 C 123.5625 155.078125 121.605469 144.390625 119.882813 143.957031 L 123.722656 143.332031 C 123.773438 143.324219 123.828125 143.316406 123.878906 143.308594 L 128.679688 163.15625 "/>
</g>
<g clip-path="url(#clip4)" clip-rule="nonzero">
<path style=" stroke:none;fill-rule:nonzero;fill:rgb(73.298645%,73.298645%,72.898865%);fill-opacity:1;" d="M 144.097656 163.445313 L 144.058594 163.3125 L 145.71875 163.328125 L 145.730469 163.363281 L 144.097656 163.445313 M 139.09375 142.640625 C 138.511719 142.597656 137.929688 142.5625 137.347656 142.539063 L 137.332031 142.488281 L 139.042969 142.488281 L 139.09375 142.640625 "/>
<path style=" stroke:none;fill-rule:nonzero;fill:rgb(93.699646%,94.898987%,97.999573%);fill-opacity:1;" d="M 145.71875 163.328125 L 144.058594 163.3125 L 137.347656 142.539063 C 137.929688 142.5625 138.511719 142.597656 139.09375 142.640625 L 145.71875 163.328125 "/>
</g>
<path style=" stroke:none;fill-rule:nonzero;fill:rgb(34.098816%,34.098816%,29.399109%);fill-opacity:1;" d="M 33.910156 155.734375 C 33.910156 155.734375 57.546875 167.667969 61.992188 154.09375 C 61.992188 154.09375 64.332031 151.054688 61.992188 146.957031 C 61.992188 146.957031 67.726563 144.972656 68.191406 141.226563 C 68.191406 141.226563 75.214844 142.746094 81.882813 133.503906 C 81.882813 133.503906 97.324219 134.558594 111.015625 141.109375 C 111.015625 141.109375 118.738281 144.265625 120.023438 150.820313 L 122.714844 162.988281 L 49.824219 162.285156 C 49.824219 162.285156 35.082031 158.425781 33.910156 155.734375 "/>
<path style=" stroke:none;fill-rule:nonzero;fill:rgb(73.298645%,73.298645%,72.898865%);fill-opacity:1;" d="M 119.269531 148.527344 C 116.933594 143.527344 111.015625 141.109375 111.015625 141.109375 C 109.066406 140.175781 107.082031 139.355469 105.113281 138.632813 C 104.933594 138.554688 104.757813 138.484375 104.578125 138.417969 C 104.578125 138.417969 116.160156 141.574219 119.203125 148.246094 L 119.269531 148.527344 "/>
<path style=" stroke:none;fill-rule:nonzero;fill:rgb(79.998779%,79.998779%,78.399658%);fill-opacity:1;" d="M 122.714844 162.988281 L 121.425781 162.871094 C 121.425781 162.871094 115.101563 142.984375 105.113281 138.632813 C 107.082031 139.355469 109.066406 140.175781 111.015625 141.109375 C 111.015625 141.109375 116.933594 143.527344 119.269531 148.527344 L 122.714844 162.988281 "/>
<path style=" stroke:none;fill-rule:nonzero;fill:rgb(100%,100%,100%);fill-opacity:1;" d="M 80.710938 113.496094 C 80.710938 113.496094 87.261719 119.933594 87.261719 122.855469 C 87.261719 125.78125 83.871094 129.761719 83.871094 129.761719 L 83.636719 130.226563 C 83.636719 130.226563 107.972656 135.140625 116.042969 140.992188 L 114.40625 126.367188 C 114.40625 126.367188 114.757813 124.726563 110.078125 122.621094 C 110.078125 122.621094 101.304688 116.535156 80.710938 113.496094 "/>
<path style=" stroke:none;fill-rule:nonzero;fill:rgb(96.899414%,96.099854%,90.19928%);fill-opacity:1;" d="M 83.753906 116.539063 C 83.753906 116.539063 102.121094 119.347656 105.515625 122.972656 L 106.214844 135.960938 L 106.097656 136.3125 L 113.820313 139.351563 L 112.300781 123.792969 C 112.300781 123.792969 106.683594 118.761719 84.6875 114.199219 L 80.710938 113.496094 L 83.753906 116.539063 "/>
<path style=" stroke:none;fill-rule:nonzero;fill:rgb(96.899414%,96.099854%,90.19928%);fill-opacity:1;" d="M 75.445313 107.296875 C 75.445313 107.296875 94.402344 109.988281 102.003906 113.027344 C 109.609375 116.070313 120.957031 120.753906 121.425781 124.261719 C 121.425781 124.261719 122.597656 126.25 115.929688 127.417969 C 115.929688 127.417969 116.980469 124.027344 112.886719 122.039063 C 112.886719 122.039063 103.175781 115.601563 79.191406 112.09375 C 79.191406 112.09375 76.5 107.644531 75.445313 107.296875 "/>
<path style=" stroke:none;fill-rule:nonzero;fill:rgb(96.899414%,96.099854%,90.19928%);fill-opacity:1;" d="M 116.160156 129.058594 L 117.914063 141.695313 C 117.914063 141.695313 133.476563 139.121094 138.976563 140.640625 L 138.976563 140.40625 L 135.230469 111.507813 C 135.230469 111.507813 132.1875 108.234375 127.273438 108.46875 C 127.273438 108.46875 129.382813 127.304688 116.160156 129.058594 "/>
<path style=" stroke:none;fill-rule:nonzero;fill:rgb(100%,100%,100%);fill-opacity:1;" d="M 128.445313 113.613281 L 131.019531 140.171875 L 136.753906 140.523438 L 133.007813 114.902344 C 133.007813 114.902344 131.371094 111.273438 128.445313 113.613281 "/>
<path style=" stroke:none;fill-rule:nonzero;fill:rgb(10.998535%,11.399841%,10.598755%);fill-opacity:1;" d="M 116.160156 129.058594 C 116.160156 129.058594 118.28125 128.527344 119.597656 128.09375 C 118.585938 128.554688 117.445313 128.886719 116.160156 129.058594 "/>
<path style=" stroke:none;fill-rule:nonzero;fill:rgb(70.599365%,70.199585%,65.899658%);fill-opacity:1;" d="M 117.914063 141.695313 L 116.160156 129.058594 C 117.445313 128.886719 118.585938 128.554688 119.597656 128.09375 C 120.136719 127.917969 120.539063 127.757813 120.605469 127.65625 L 122.832031 140.757813 L 117.914063 141.695313 "/>
<path style=" stroke:none;fill-rule:nonzero;fill:rgb(95.698547%,90.59906%,87.5%);fill-opacity:1;" d="M 127.042969 103.902344 C 127.042969 103.902344 138.742188 103.667969 143.773438 110.339844 C 143.773438 110.339844 143.070313 115.019531 137.453125 113.851563 C 137.453125 113.851563 136.167969 112.5625 136.519531 110.222656 C 136.519531 110.222656 136.636719 106.710938 127.628906 106.59375 L 127.042969 103.902344 "/>
<path style=" stroke:none;fill-rule:nonzero;fill:rgb(45.098877%,43.099976%,41.19873%);fill-opacity:1;" d="M 143.070313 101.796875 L 141.082031 101.5625 C 141.082031 101.5625 138.105469 92.769531 134.773438 87.628906 C 140.355469 94.324219 143.070313 101.796875 143.070313 101.796875 M 132.203125 84.617188 C 131.824219 84.371094 131.605469 84.246094 131.605469 84.246094 C 131.804688 84.34375 132.003906 84.46875 132.203125 84.617188 "/>
<path style=" stroke:none;fill-rule:nonzero;fill:rgb(64.698792%,64.698792%,64.299011%);fill-opacity:1;" d="M 143.65625 102.03125 L 143.070313 101.796875 C 142.445313 96.507813 137.578125 90.488281 134.390625 87.050781 C 133.664063 86.003906 132.925781 85.152344 132.203125 84.617188 C 134.511719 86.105469 142.75 92.082031 143.65625 102.03125 M 134.773438 87.628906 C 133.804688 86.464844 132.75 85.320313 131.605469 84.246094 C 131.605469 84.246094 132.785156 85.324219 134.390625 87.050781 C 134.519531 87.238281 134.648438 87.429688 134.773438 87.628906 "/>
<path style=" stroke:none;fill-rule:nonzero;fill:rgb(77.999878%,77.2995%,76.499939%);fill-opacity:1;" d="M 143.070313 101.796875 C 143.070313 101.796875 140.355469 94.324219 134.773438 87.628906 C 134.648438 87.429688 134.519531 87.238281 134.390625 87.050781 C 137.578125 90.488281 142.445313 96.507813 143.070313 101.796875 M 134.390625 87.050781 C 132.785156 85.324219 131.605469 84.246094 131.605469 84.246094 C 131.605469 84.246094 131.824219 84.371094 132.203125 84.617188 C 132.925781 85.152344 133.664063 86.003906 134.390625 87.050781 "/>
<path style=" stroke:none;fill-rule:nonzero;fill:rgb(73.298645%,73.298645%,72.898865%);fill-opacity:1;" d="M 125.640625 117.59375 C 125.640625 117.59375 125.632813 117.28125 125.613281 116.734375 C 125.628906 116.839844 125.640625 116.894531 125.640625 116.894531 C 125.964844 97.726563 122.078125 94.394531 121.496094 94.003906 L 122.246094 93.257813 C 122.246094 93.257813 127.394531 98.402344 125.640625 117.59375 "/>
<path style=" stroke:none;fill-rule:nonzero;fill:rgb(37.998962%,38.398743%,37.998962%);fill-opacity:1;" d="M 125.613281 116.734375 C 125.304688 114.800781 122.210938 95.9375 119.4375 95.714844 L 121.425781 93.960938 C 121.425781 93.960938 121.449219 93.972656 121.496094 94.003906 L 121.191406 94.3125 C 124.695313 95.753906 125.476563 112.699219 125.613281 116.734375 "/>
<path style=" stroke:none;fill-rule:nonzero;fill:rgb(81.599426%,81.999207%,81.599426%);fill-opacity:1;" d="M 125.640625 116.894531 C 125.640625 116.894531 125.628906 116.839844 125.613281 116.734375 C 125.476563 112.699219 124.695313 95.753906 121.191406 94.3125 L 121.496094 94.003906 C 122.078125 94.394531 125.964844 97.726563 125.640625 116.894531 "/>
<path style=" stroke:none;fill-rule:nonzero;fill:rgb(73.298645%,73.298645%,72.898865%);fill-opacity:1;" d="M 68.789063 101.894531 C 61.726563 97.304688 52.746094 94.898438 52.746094 94.898438 L 45.027344 84.71875 L 42.335938 84.25 L 42.003906 83.464844 L 45.960938 84.484375 L 52.628906 93.492188 L 55.085938 94.664063 C 60.558594 96.425781 65.402344 99.421875 68.789063 101.894531 "/>
<path style=" stroke:none;fill-rule:nonzero;fill:rgb(37.998962%,38.398743%,37.998962%);fill-opacity:1;" d="M 73.808594 106.011719 C 73.808594 106.011719 71.917969 104.175781 68.789063 101.894531 C 69.785156 102.542969 70.746094 103.238281 71.640625 103.972656 C 72.992188 105.1875 73.808594 106.011719 73.808594 106.011719 M 73.808594 106.011719 C 73.152344 105.296875 72.421875 104.617188 71.640625 103.972656 C 68.066406 100.761719 60.726563 94.808594 54.621094 93.960938 L 45.84375 83.546875 L 41.398438 82.027344 L 45.609375 81.675781 L 48.769531 83.898438 L 55.085938 90.800781 C 55.085938 90.800781 71.117188 100.746094 73.808594 106.011719 M 42.003906 83.464844 L 41.867188 83.429688 L 41.398438 82.027344 L 42.003906 83.464844 "/>
<path style=" stroke:none;fill-rule:nonzero;fill:rgb(81.599426%,81.999207%,81.599426%);fill-opacity:1;" d="M 73.808594 106.011719 C 73.808594 106.011719 72.992188 105.1875 71.640625 103.972656 C 72.421875 104.617188 73.152344 105.296875 73.808594 106.011719 M 71.640625 103.972656 C 70.746094 103.238281 69.785156 102.542969 68.789063 101.894531 C 65.402344 99.421875 60.558594 96.425781 55.085938 94.664063 L 52.628906 93.492188 L 45.960938 84.484375 L 42.003906 83.464844 L 41.398438 82.027344 L 45.84375 83.546875 L 54.621094 93.960938 C 60.726563 94.808594 68.066406 100.761719 71.640625 103.972656 "/>
<path style=" stroke:none;fill-rule:nonzero;fill:rgb(73.298645%,73.298645%,72.898865%);fill-opacity:1;" d="M 89.136719 73.367188 C 85.425781 68.164063 79.296875 64.625 74.585938 62.507813 C 72.472656 61.433594 70.265625 60.554688 68.058594 60.054688 C 68.023438 60.046875 67.988281 60.035156 67.957031 60.03125 C 67.957031 60.03125 86.910156 63.425781 90.539063 73.019531 L 89.136719 73.367188 "/>
<path style=" stroke:none;fill-rule:nonzero;fill:rgb(37.998962%,38.398743%,37.998962%);fill-opacity:1;" d="M 87.144531 73.484375 C 87.144531 73.484375 72.160156 61.539063 68.34375 60.144531 C 69.242188 60.414063 71.636719 61.183594 74.585938 62.507813 C 82.53125 66.550781 89.136719 73.367188 89.136719 73.367188 L 87.144531 73.484375 M 68.34375 60.144531 C 68.09375 60.066406 67.957031 60.03125 67.957031 60.03125 C 67.992188 60.039063 68.023438 60.046875 68.058594 60.054688 C 68.144531 60.074219 68.238281 60.105469 68.34375 60.144531 "/>
<path style=" stroke:none;fill-rule:nonzero;fill:rgb(81.599426%,81.999207%,81.599426%);fill-opacity:1;" d="M 89.136719 73.367188 C 89.136719 73.367188 82.53125 66.550781 74.585938 62.507813 C 79.296875 64.625 85.425781 68.164063 89.136719 73.367188 M 68.058594 60.054688 C 68.023438 60.046875 67.992188 60.039063 67.957031 60.03125 C 67.988281 60.035156 68.023438 60.046875 68.058594 60.054688 "/>
<path style=" stroke:none;fill-rule:nonzero;fill:rgb(88.198853%,12.199402%,14.898682%);fill-opacity:1;" d="M 19.09375 157.574219 C 19.09375 157.574219 20.414063 155.261719 29.503906 157.082031 L 46.6875 162.285156 L 30.742188 162.117188 C 30.742188 162.117188 20.5 157.738281 19.09375 157.574219 "/>
<path style=" stroke:none;fill-rule:nonzero;fill:rgb(78.399658%,82.398987%,92.199707%);fill-opacity:1;" d="M 4.71875 161.457031 C 4.71875 161.457031 14.550781 153.113281 22.648438 161.789063 L 4.71875 161.457031 "/>
<path style=" stroke:none;fill-rule:nonzero;fill:rgb(74.499512%,12.5%,14.898682%);fill-opacity:1;" d="M 92.84375 76.238281 L 94.671875 73.375 L 93.398438 96.609375 L 115.53125 96.78125 L 139.289063 74.589844 L 156.03125 73.257813 L 154.121094 74.707031 L 138.675781 75.726563 L 115.761719 98.125 L 91.558594 97.996094 L 92.84375 76.238281 "/>
<path style=" stroke:none;fill-rule:nonzero;fill:rgb(10.998535%,11.399841%,10.598755%);fill-opacity:1;" d="M 94.289063 72.851563 L 92.957031 97.195313 L 115.089844 97.320313 L 115.03125 97.578125 L 116.488281 97.902344 L 116.949219 95.839844 L 94.535156 95.710938 L 95.78125 72.933594 L 94.289063 72.851563 "/>
<path style=" stroke:none;fill-rule:nonzero;fill:rgb(10.998535%,11.399841%,10.598755%);fill-opacity:1;" d="M 116.535156 97.117188 L 139.515625 75.035156 L 156.621094 73.765625 L 156.511719 72.277344 L 138.867188 73.585938 L 115.5 96.042969 L 116.535156 97.117188 "/>
<path style=" stroke:none;fill-rule:nonzero;fill:rgb(74.499512%,12.5%,14.898682%);fill-opacity:1;" d="M 19.59375 29.894531 L 20.503906 28.53125 L 40.894531 48.191406 L 51.308594 81.179688 L 77.960938 94.289063 L 76.238281 95.933594 L 49.125 82.128906 L 39.421875 49.851563 L 19.59375 29.894531 "/>
<path style=" stroke:none;fill-rule:nonzero;fill:rgb(10.998535%,11.399841%,10.598755%);fill-opacity:1;" d="M 20.234375 28.886719 L 40.671875 48.699219 L 50.871094 81.59375 L 78.246094 95.074219 L 78.90625 93.734375 L 52.105469 80.535156 L 41.984375 47.894531 L 21.273438 27.816406 L 20.234375 28.886719 "/>
</g>
</svg>
